# xmcd
#
# Track frame offsets:
#	150
#	15033
#	30491
#	45939
#	62378
#	75379
#	94994
#	129579
#	148724
#	160999
#	180001
#	193828
#	205578
#
# Disc length: 2995 seconds
#
# Revision: 1
# Processed by: cddbd v1.5.2PL0 Copyright (c) Steve Scherf et al.
# Submitted via: audiograbber 1.83.01
#
DISCID=910bb10d
DTITLE=Shake Russell Band - Live @ Gruene Hall
DYEAR=2007
DGENRE=Country
TTITLE0=Hank Williams Moon
TTITLE1=Something In The West Texas Wind
TTITLE2=Heart Killer
TTITLE3=You Make The Blues Seem Like A Sunny Day
TTITLE4=Put Yourself In My Shoes
TTITLE5=Deep In The West
TTITLE6=Mr. Jellyroll Baker - Comin Home
TTITLE7=You've Got A Lover
TTITLE8=My Acadian Angel
TTITLE9=I Thought You'd Never Ask
TTITLE10=Cowboy Coffee
TTITLE11=Two Silver Hearts
TTITLE12=Today's The Day
EXTD=
EXTT0=
EXTT1=
EXTT2=
EXTT3=
EXTT4=
EXTT5=
EXTT6=
EXTT7=
EXTT8=
EXTT9=
EXTT10=
EXTT11=
EXTT12=
PLAYORDER=
